<?xml version="1.0" standalone="no"?>
<!DOCTYPE svg PUBLIC "-//W3C//DTD SVG 20010904//EN"
 "http://www.w3.org/TR/2001/REC-SVG-20010904/DTD/svg10.dtd">
<svg version="1.0" xmlns="http://www.w3.org/2000/svg"
 width="500.000000pt" height="500.000000pt" viewBox="0 0 500.000000 500.000000"
 preserveAspectRatio="xMidYMid meet">

<g transform="translate(0.000000,500.000000) scale(0.100000,-0.100000)"
fill="#000000" stroke="none">
<path d="M1097 3868 c-16 -12 -17 -116 -15 -1581 l3 -1567 449 505 c428 482
450 505 466 488 10 -10 234 -287 499 -616 l482 -597 397 2 c397 3 397 3 400
24 2 16 -171 227 -678 824 -374 441 -680 806 -678 811 2 5 306 383 676 839
369 456 672 836 672 844 0 8 -9 20 -19 26 -21 11 -688 15 -728 4 -13 -4 -86
-84 -170 -188 -81 -99 -365 -449 -632 -776 -266 -327 -488 -596 -492 -598 -5
-2 -9 336 -9 770 0 589 -3 777 -12 786 -18 18 -587 17 -611 0z"/>
</g>
</svg>
